<svg xmlns="http://www.w3.org/2000/svg" width="439.277" height="91.264" viewBox="0 0 439.277 91.264"><g transform="translate(-740 -105.973)"><path d="M109.619-31.874v4.864c0,2.227-.556,2.667-1.875,2.667v.5h6.008v-.5c-1.437,0-1.906-.675-1.906-2.667V-37.471c0-1.994.469-2.667,1.906-2.667v-.5h-6.008v.5c1.435,0,1.875.617,1.875,2.667v4.779h-9.144v-4.779c0-2.14.615-2.667,1.935-2.667v-.5H96.344v.5c1.494,0,1.9.673,1.9,2.667v10.462c0,2.227-.615,2.667-1.9,2.667v.5h6.067v-.5c-1.437,0-1.935-.644-1.935-2.667v-4.864Z" transform="translate(643.656 202.442)" fill="#4c545c"/><path d="M116.836-34.277h-.5c-.235,1.437-.675,1.642-1.819,1.642h-4.687v-7.181h4.835c1.846,0,2.433.146,2.812,1.994h.323v-2.812H105.7v.5c1.435,0,1.9.585,1.9,2.667v10.489c0,2.227-.587,2.64-1.9,2.64v.5h12.1l.762-3.135h-.5c-1,2.2-1.612,2.317-4.075,2.317h-2.929c-.937,0-1.231-.321-1.231-1.144v-6.006h4.16c1.729,0,1.994.175,2.346,1.61h.5Z" transform="translate(653.793 202.443)" fill="#4c545c"/><path d="M117.005-31.609h1.348c3.077,0,3.956,3.956,7.092,7.764h3.429v-.5c-2.783-.208-3.84-5.746-6.975-7.769,2.462-.731,3.458-2.285,3.458-4.131,0-2.227-1.817-4.4-5.6-4.4h-6.885v.5c1.346,0,1.9.408,1.9,2.608v10.519c0,2.256-.617,2.669-1.9,2.669v.5h6.035v-.5c-1.377,0-1.9-.617-1.9-2.669Zm0-8.381h1.758c2.579,0,4.25,1.581,4.25,3.81a3.644,3.644,0,0,1-3.956,3.867h-2.052Z" transform="translate(661.563 202.442)" fill="#4c545c" fill-rule="evenodd"/><path d="M128.845-39.495h2.55c2.667,0,3.223,1,3.546,2.4h.321v-3.839h-.527a3.837,3.837,0,0,1-2.667.619h-8.791a7.372,7.372,0,0,1-1.612-.148,2.186,2.186,0,0,1-.906-.471h-.5v3.839h.5c.146-1.756,1.171-2.4,3.427-2.4h2.433v12.806c0,2.315-.7,2.667-1.906,2.667v.5h5.95v-.5c-1.435,0-1.817-.556-1.817-2.577Z" transform="translate(669.564 202.121)" fill="#4c545c"/><path d="M132.453-31.962h4.425c1.173,0,1.758.7,1.817,1.9h.469v-4.717h-.469c-.146,1.348-.615,1.994-1.875,1.994h-4.367v-7.035h4.279c1.817,0,2.315.119,2.725,2.171h.381v-2.99H128.322v.5c1.406,0,1.9.556,1.9,2.667v10.46c0,2.081-.5,2.669-1.9,2.669v.5h6.035v-.5c-1.406,0-1.9-.617-1.9-2.669Z" transform="translate(678.298 202.443)" fill="#4c545c"/><path d="M135.1-32.1a8.813,8.813,0,0,0,8.939,8.879A8.838,8.838,0,0,0,153-32.1a8.738,8.738,0,0,0-8.91-8.733,8.672,8.672,0,0,0-9,8.733m2.579.029c0-4.867,2.521-8.119,6.477-8.119,3.456,0,6.271,2.96,6.271,8.235,0,4.073-2.2,8.087-6.419,8.087-3.779,0-6.329-3.31-6.329-8.2" transform="translate(685.639 202.229)" fill="#4c545c" fill-rule="evenodd"/><path d="M148.569-31.609h1.348c3.077,0,3.956,3.956,7.092,7.764h3.429v-.5c-2.783-.208-3.839-5.746-6.975-7.769,2.462-.731,3.458-2.285,3.458-4.131,0-2.227-1.817-4.4-5.6-4.4h-6.885v.5c1.348,0,1.9.408,1.9,2.608v10.519c0,2.256-.615,2.669-1.9,2.669v.5h6.035v-.5c-1.377,0-1.9-.617-1.9-2.669Zm0-8.381h1.758c2.579,0,4.25,1.581,4.25,3.81a3.644,3.644,0,0,1-3.956,3.867h-2.052Z" transform="translate(695.756 202.442)" fill="#4c545c" fill-rule="evenodd"/><path d="M154.657-27.009c0,2.081-.558,2.669-1.906,2.669v.5h7.973c6.594,0,9.26-3.9,9.26-8.116,0-4.367-3.048-8.675-9.466-8.675h-7.766v.5c1.408,0,1.906.644,1.906,2.665Zm2.227-12.981h3.194c5.306,0,7.327,4.044,7.327,8.058,0,4.571-2.492,7.444-6.652,7.444h-1.729c-1.554,0-2.14-.5-2.14-3.108Z" transform="translate(704.761 202.442)" fill="#4c545c" fill-rule="evenodd"/><path d="M171.17-40.658H170.7c-.117.41-.177.471-.44.471-.646,0-1.494-.646-3.281-.646a4.234,4.234,0,0,0-4.573,4.335,4.739,4.739,0,0,0,1.435,3.521c1.877,1.875,6.389,3.223,6.389,6.121,0,1.817-1.348,2.994-3.371,2.994A4.024,4.024,0,0,1,162.818-28h-.5v4.539h.5c.148-.44.352-.642.644-.642.558,0,2.052.879,3.84.879A4.779,4.779,0,0,0,172.078-28a4.382,4.382,0,0,0-1.465-3.342c-2.4-2.4-6.681-3.223-6.681-6.329,0-1.554,1.26-2.521,3.017-2.521a3.576,3.576,0,0,1,3.723,3.456h.5Z" transform="translate(715.127 202.229)" fill="#4c545c"/><path d="M181.209-31.874v4.864c0,2.227-.556,2.667-1.875,2.667v.5h6.008v-.5c-1.437,0-1.906-.675-1.906-2.667V-37.471c0-1.994.469-2.667,1.906-2.667v-.5h-6.008v.5c1.435,0,1.875.617,1.875,2.667v4.779h-9.144v-4.779c0-2.14.617-2.667,1.935-2.667v-.5h-6.066v.5c1.494,0,1.9.673,1.9,2.667v10.462c0,2.227-.615,2.667-1.9,2.667v.5H174v-.5c-1.437,0-1.935-.644-1.935-2.667v-4.864Z" transform="translate(721.209 202.442)" fill="#4c545c"/><path d="M181.324-37.471c0-2.021.5-2.667,1.9-2.667v-.5h-6.035v.5c1.435,0,1.9.556,1.9,2.667v10.46c0,2.142-.527,2.669-1.9,2.669v.5h6.035v-.5c-1.406,0-1.9-.617-1.9-2.669Z" transform="translate(731.239 202.442)" fill="#4c545c"/><path d="M185.077-31.609h1.348c3.077,0,3.956,3.956,7.091,7.764h3.429v-.5c-2.783-.208-3.839-5.746-6.975-7.769,2.462-.731,3.458-2.285,3.458-4.131,0-2.227-1.817-4.4-5.6-4.4h-6.885v.5c1.348,0,1.9.408,1.9,2.608v10.519c0,2.256-.615,2.669-1.9,2.669v.5h6.035v-.5c-1.377,0-1.9-.617-1.9-2.669Zm0-8.381h1.758c2.579,0,4.25,1.581,4.25,3.81a3.644,3.644,0,0,1-3.956,3.867h-2.052Z" transform="translate(735.304 202.442)" fill="#4c545c" fill-rule="evenodd"/><path d="M200.438-34.277h-.5c-.235,1.437-.673,1.642-1.817,1.642h-4.689v-7.181h4.835c1.846,0,2.433.146,2.815,1.994h.321v-2.812H189.3v.5c1.435,0,1.9.585,1.9,2.667v10.489c0,2.227-.585,2.64-1.9,2.64v.5h12.1l.762-3.135h-.5c-1,2.2-1.612,2.317-4.073,2.317h-2.931c-.937,0-1.231-.321-1.231-1.144v-6.006H197.6c1.727,0,1.992.175,2.344,1.61h.5Z" transform="translate(744.357 202.443)" fill="#4c545c"/><path d="M224.075-40.658h-.469c-.117.41-.177.471-.44.471-.646,0-1.494-.646-3.281-.646a4.234,4.234,0,0,0-4.573,4.335,4.733,4.733,0,0,0,1.437,3.521c1.875,1.875,6.389,3.223,6.389,6.121,0,1.817-1.348,2.994-3.373,2.994A4.025,4.025,0,0,1,215.723-28h-.5v4.539h.5c.148-.44.352-.642.644-.642.558,0,2.052.879,3.842.879A4.779,4.779,0,0,0,224.985-28a4.378,4.378,0,0,0-1.467-3.342c-2.4-2.4-6.681-3.223-6.681-6.329,0-1.554,1.26-2.521,3.019-2.521a3.575,3.575,0,0,1,3.721,3.456h.5Z" transform="translate(772.438 202.229)" fill="#4c545c"/><path d="M225-31.7a19.569,19.569,0,0,0,2.579.177c3.808,0,5.921-1.552,5.921-4.337,0-2.315-1.877-4.777-6.506-4.777h-6.127v.5c1.406,0,1.9.615,1.9,2.665v10.521c0,2.227-.729,2.61-1.9,2.61v.5H226.9v-.5c-1.406,0-1.9-.587-1.9-2.669Zm0-8.291h2.079a3.917,3.917,0,0,1,4.075,4.189c0,2.285-1.583,3.633-4.075,3.633A5.373,5.373,0,0,1,225-32.459Z" transform="translate(778.55 202.442)" fill="#4c545c" fill-rule="evenodd"/><path d="M227.776-32.1a8.813,8.813,0,0,0,8.937,8.879A8.838,8.838,0,0,0,245.68-32.1a8.736,8.736,0,0,0-8.908-8.733,8.672,8.672,0,0,0-9,8.733m2.579.029c0-4.867,2.519-8.119,6.475-8.119,3.458,0,6.273,2.96,6.273,8.235,0,4.073-2.2,8.087-6.419,8.087-3.779,0-6.329-3.31-6.329-8.2" transform="translate(786.035 202.229)" fill="#4c545c" fill-rule="evenodd"/><path d="M241.107-31.609h1.348c3.077,0,3.956,3.956,7.092,7.764h3.429v-.5c-2.783-.208-3.837-5.746-6.975-7.769,2.462-.731,3.458-2.285,3.458-4.131,0-2.227-1.817-4.4-5.6-4.4h-6.887v.5c1.348,0,1.9.408,1.9,2.608v10.519c0,2.256-.615,2.669-1.9,2.669v.5h6.037v-.5c-1.375,0-1.9-.617-1.9-2.669Zm0-8.381h1.758c2.579,0,4.25,1.581,4.25,3.81a3.644,3.644,0,0,1-3.956,3.867h-2.052Z" transform="translate(795.999 202.442)" fill="#4c545c" fill-rule="evenodd"/><path d="M252.947-39.495h2.55c2.667,0,3.223,1,3.546,2.4h.321v-3.839h-.525a3.847,3.847,0,0,1-2.669.619h-8.789a7.38,7.38,0,0,1-1.615-.148,2.172,2.172,0,0,1-.906-.471h-.5v3.839h.5c.146-1.756,1.171-2.4,3.429-2.4h2.429v12.806c0,2.315-.7,2.667-1.9,2.667v.5h5.95v-.5c-1.435,0-1.817-.556-1.817-2.577Z" transform="translate(804 202.121)" fill="#4c545c"/><path d="M261.538-40.658h-.469c-.117.41-.175.471-.44.471-.646,0-1.494-.646-3.281-.646a4.234,4.234,0,0,0-4.573,4.335,4.741,4.741,0,0,0,1.438,3.521c1.875,1.875,6.389,3.223,6.389,6.121,0,1.817-1.348,2.994-3.373,2.994A4.022,4.022,0,0,1,253.188-28h-.5v4.539h.5c.146-.44.35-.642.642-.642.558,0,2.052.879,3.842.879A4.779,4.779,0,0,0,262.448-28a4.378,4.378,0,0,0-1.467-3.342c-2.4-2.4-6.681-3.223-6.681-6.329,0-1.554,1.26-2.521,3.019-2.521a3.575,3.575,0,0,1,3.721,3.456h.5Z" transform="translate(813.024 202.229)" fill="#4c545c"/><path d="M271.457-36.857c.85-2.283,1.788-3.252,3.048-3.252v-.527h-4.894v.5c1.523,0,1.788.908,1.26,2.346l-3.9,10.46-4.1-10.843c-.5-1.317.087-1.962,1.29-1.962v-.5h-6.1v.5c1.583.058,1.994.85,2.785,2.9l5.185,13.627h.471Z" transform="translate(818.845 202.442)" fill="#4c545c"/><path d="M270.666-37.471c0-2.021.5-2.667,1.9-2.667v-.5h-6.037v.5c1.438,0,1.9.556,1.9,2.667v10.46c0,2.142-.525,2.669-1.9,2.669v.5h6.037v-.5c-1.406,0-1.9-.617-1.9-2.669Z" transform="translate(828.019 202.442)" fill="#4c545c"/><path d="M283.6-27.507h-.5c-.733,2.4-1.29,2.844-3.312,2.844h-3.34c-1.406,0-1.906-.294-1.906-1.612V-37.5c0-1.785.469-2.635,1.875-2.635v-.5h-6.006v.5c1.348,0,1.9.5,1.9,2.431v10.55c0,2.081-.556,2.815-1.9,2.815v.5h12.16Z" transform="translate(832.224 202.442)" fill="#4c545c"/><path d="M290.636-27.507h-.5c-.731,2.4-1.292,2.844-3.312,2.844h-3.34c-1.406,0-1.906-.294-1.906-1.612V-37.5c0-1.785.469-2.635,1.877-2.635v-.5h-6.008v.5c1.348,0,1.906.5,1.906,2.431v10.55c0,2.081-.558,2.815-1.906,2.815v.5h12.162Z" transform="translate(839.845 202.442)" fill="#4c545c"/><path d="M295.706-25.892c.379,1.144-.177,1.642-1.319,1.642v.5h5.921v-.5c-1.5,0-1.906-.467-2.4-2.023L293.04-40.721h-1.729L286.68-26.886c-.525,1.552-.908,2.4-2.492,2.635v.5h4.339v-.5c-1.758-.027-1.465-1.29-.908-2.929l1.142-3.369h5.421Zm-1.9-5.685h-4.719l2.344-7.119h.058Z" transform="translate(847.145 202.35)" fill="#4c545c" fill-rule="evenodd"/><path d="M306.686-28.145c0-1.465.44-2.256,2.081-2.256v-.5h-6.8v.5h.646c1.377,0,1.846.733,1.846,2.785V-25.8c0,1.494-1.612,1.787-2.815,1.787-3.983,0-6.914-3.635-6.914-8.558,0-4.6,2.608-7.619,6.064-7.619a5.4,5.4,0,0,1,5.571,4.542h.467V-40.6H306.3a.841.841,0,0,1-.937.556c-1.29,0-2.2-.79-4.573-.79a8.865,8.865,0,0,0-8.641,9.287c0,3.871,2.46,8.325,9.843,8.325a29.777,29.777,0,0,0,4.689-.412Z" transform="translate(855.773 202.23)" fill="#4c545c"/><path d="M312.164-34.277h-.5c-.235,1.437-.673,1.642-1.817,1.642H305.16v-7.181H310c1.844,0,2.429.146,2.812,1.994h.321v-2.812h-12.1v.5c1.437,0,1.906.585,1.906,2.667v10.489c0,2.227-.585,2.64-1.906,2.64v.5h12.1l.76-3.135h-.5c-1,2.2-1.612,2.317-4.075,2.317h-2.929c-.937,0-1.231-.321-1.231-1.144v-6.006h4.16c1.731,0,1.994.175,2.346,1.61h.5Z" transform="translate(865.386 202.443)" fill="#4c545c"/><path d="M206.765-58.97a7.353,7.353,0,0,0,2.146,4.925,23.314,23.314,0,0,0,2.223,2.15c.821.708,1.694,1.41,2.569,2.133,3.492,2.9,7.052,6.177,7.052,11.493,0,8.864-7.65,12.512-14.01,10.233a.736.736,0,1,1,.377-1.423c3.66.712,7.2-1.031,7.2-6.658a8.822,8.822,0,0,0-2.123-5.656,19.857,19.857,0,0,0-2.2-2.292c-.808-.737-1.669-1.45-2.531-2.171-3.446-2.879-6.969-5.927-6.969-11.048,0-6.652,5.51-10.277,11.091-10.037a.732.732,0,0,1,.142,1.456c-2.727.687-4.973,2.981-4.973,6.894" transform="translate(756.492 173.523)" fill="#f87a22"/><path d="M206.765-58.97a7.353,7.353,0,0,0,2.146,4.925,23.314,23.314,0,0,0,2.223,2.15c.821.708,1.694,1.41,2.569,2.133,3.492,2.9,7.052,6.177,7.052,11.493,0,8.864-7.65,12.512-14.01,10.233a.736.736,0,1,1,.377-1.423c3.66.712,7.2-1.031,7.2-6.658a8.822,8.822,0,0,0-2.123-5.656,19.857,19.857,0,0,0-2.2-2.292c-.808-.737-1.669-1.45-2.531-2.171-3.446-2.879-6.969-5.927-6.969-11.048,0-6.652,5.51-10.277,11.091-10.037a.732.732,0,0,1,.142,1.456C209.011-65.176,206.765-62.883,206.765-58.97Z" transform="translate(756.492 173.523)" fill="none" stroke="#e9581b" stroke-width="0.434"/><path d="M236.849-49.156a.879.879,0,0,1,.871.892.881.881,0,0,1-.875.89h-3.377a.465.465,0,0,0-.346.258L217.339,3.432a.566.566,0,0,1-.5.373h-.308l-.313,0a.683.683,0,0,1-.529-.377c-1.1-3.331-14.591-46.643-15.808-50.547a.465.465,0,0,0-.344-.258h-3.508a.884.884,0,0,1-.877-.89.887.887,0,0,1,.879-.892h10.606a.694.694,0,0,1,.517.375c.879,2.708,9.779,31.691,11.7,37.957.131.427.558.429.69,0l11.846-37.941a.646.646,0,0,1,.64-.394h4.827Z" transform="translate(750.689 193.212)" fill="#4c545c" fill-rule="evenodd"/><path d="M236.849-49.156a.879.879,0,0,1,.871.892.881.881,0,0,1-.875.89h-3.377a.465.465,0,0,0-.346.258L217.339,3.432a.566.566,0,0,1-.5.373h-.308l-.313,0a.683.683,0,0,1-.529-.377c-1.1-3.331-14.591-46.643-15.808-50.547a.465.465,0,0,0-.344-.258h-3.508a.884.884,0,0,1-.877-.89.887.887,0,0,1,.879-.892h10.606a.694.694,0,0,1,.517.375c.879,2.708,9.779,31.691,11.7,37.957.131.427.558.429.69,0l11.846-37.941a.646.646,0,0,1,.64-.394h4.827Z" transform="translate(750.689 193.212)" fill="#4c545c" stroke="#fff" stroke-width="0.434"/></g></svg>